<svg width="255" height="104" viewBox="0 0 255 104" fill="none" xmlns="http://www.w3.org/2000/svg">
<g filter="url(#filter0_f_119_288)">
<rect x="34" y="18" width="187" height="52" fill="black" fill-opacity="0.03"/>
</g>
<g filter="url(#filter1_d_119_288)">
<rect x="49.208" y="21" width="13.6938" height="13.6938" rx="5" transform="rotate(25.0911 49.208 21)" fill="#4075FF" fill-opacity="0.6"/>
<rect x="63.5986" y="27.6769" width="13.6938" height="13.6938" rx="5" transform="rotate(25.0911 63.5986 27.6769)" fill="#4075FF" fill-opacity="0.6"/>
<rect x="57.4512" y="41.4714" width="13.6938" height="13.6938" rx="5" transform="rotate(25.0911 57.4512 41.4714)" fill="#4075FF" fill-opacity="0.6"/>
<rect x="42.8076" y="35.1113" width="13.6938" height="13.6938" rx="5" transform="rotate(25.0956 42.8076 35.1113)" fill="#FF0DE7" fill-opacity="0.7"/>
</g>
<path d="M99.5264 36.582C98.7842 36.6211 98.1592 36.9043 97.6514 37.4316C97.1631 37.959 96.8115 38.5645 96.5967 39.248C96.3818 39.9121 96.2744 40.5957 96.2744 41.2988C96.2744 42.002 96.3721 42.6953 96.5674 43.3789C96.7822 44.0625 97.1436 44.668 97.6514 45.1953C98.1592 45.7031 98.7842 45.9766 99.5264 46.0156H109.194C110.425 46.1328 111.099 46.8066 111.216 48.0371C111.196 48.584 110.991 49.043 110.601 49.4141C110.21 49.7656 109.741 49.9414 109.194 49.9414H99.8486H98.501C97.1338 49.8633 96.0107 49.3457 95.1318 48.3887C94.2529 47.4121 93.6182 46.3086 93.2275 45.0781C92.8564 43.8477 92.6709 42.5879 92.6709 41.2988C92.6709 40.3418 92.7783 39.3945 92.9932 38.457C93.208 37.5195 93.54 36.6309 93.9893 35.791C94.458 34.9316 95.0732 34.1992 95.835 33.5938C96.6162 32.9883 97.5049 32.6758 98.501 32.6562H99.0576H109.194C110.425 32.7734 111.099 33.4473 111.216 34.6777C111.216 35.2246 111.011 35.6836 110.601 36.0547C110.21 36.4062 109.741 36.582 109.194 36.582H99.5264ZM123.257 50.4395C122.241 50.4395 121.235 50.3223 120.239 50.0879C119.263 49.8535 118.325 49.5117 117.427 49.0625C116.528 48.5938 115.737 47.9785 115.054 47.2168C114.37 46.4551 113.999 45.5469 113.94 44.4922V43.2617V38.252C113.94 37.7051 114.136 37.2559 114.526 36.9043C114.937 36.5332 115.415 36.3477 115.962 36.3477C117.134 36.4453 117.769 37.0801 117.866 38.252V39.541V43.584C117.905 44.1895 118.13 44.6973 118.54 45.1074C118.97 45.498 119.438 45.8105 119.946 46.0449C120.474 46.2793 121.011 46.4551 121.558 46.5723C122.124 46.6895 122.69 46.748 123.257 46.748C123.823 46.748 124.38 46.6895 124.927 46.5723C125.493 46.4551 126.03 46.2793 126.538 46.0449C127.065 45.8105 127.534 45.498 127.944 45.1074C128.374 44.6973 128.608 44.1895 128.647 43.584V39.541V38.252C128.647 37.7051 128.843 37.2559 129.233 36.9043C129.644 36.5332 130.122 36.3477 130.669 36.3477C131.841 36.4453 132.485 37.0801 132.603 38.252V43.2617V44.4922C132.544 45.5469 132.163 46.4551 131.46 47.2168C130.776 47.9785 129.985 48.5938 129.087 49.0625C128.188 49.5117 127.241 49.8535 126.245 50.0879C125.269 50.3223 124.272 50.4395 123.257 50.4395ZM140.308 34.0918V45.2539C140.308 45.7422 140.562 45.9961 141.069 46.0156H151.323C151.694 45.9961 152.017 45.8398 152.29 45.5469C152.563 45.2344 152.759 44.8828 152.876 44.4922C153.013 44.082 153.081 43.6719 153.081 43.2617C153.081 42.8711 153.013 42.4805 152.876 42.0898C152.759 41.6797 152.563 41.3281 152.29 41.0352C152.017 40.7227 151.694 40.5664 151.323 40.5664H143.823C143.276 40.5664 142.808 40.3809 142.417 40.0098C142.046 39.6191 141.86 39.1504 141.86 38.6035C141.86 38.0566 142.056 37.5977 142.446 37.2266C142.817 36.8359 143.276 36.6406 143.823 36.6406H151.206C152.573 36.6602 153.696 37.0508 154.575 37.8125C155.474 38.5547 156.108 39.4043 156.479 40.3613C156.87 41.2988 157.065 42.2754 157.065 43.291C157.065 44.2676 156.87 45.2344 156.479 46.1914C156.089 47.1289 155.454 47.9785 154.575 48.7402C153.696 49.4824 152.397 49.8828 150.679 49.9414H138.374C137.827 49.9414 137.358 49.7656 136.968 49.4141C136.577 49.043 136.372 48.584 136.353 48.0371V34.0918C136.353 33.5449 136.548 33.0957 136.938 32.7441C137.349 32.373 137.827 32.1875 138.374 32.1875C139.546 32.2852 140.19 32.9199 140.308 34.0918ZM166.235 49.9414C164.517 49.8828 163.218 49.4824 162.339 48.7402C161.46 47.9785 160.825 47.1289 160.435 46.1914C160.044 45.2344 159.849 44.2676 159.849 43.291C159.849 42.2754 160.034 41.2988 160.405 40.3613C160.796 39.4043 161.431 38.5547 162.31 37.8125C163.208 37.0508 164.341 36.6602 165.708 36.6406H176.841C177.388 36.6406 177.847 36.8262 178.218 37.1973C178.608 37.5488 178.804 37.9785 178.804 38.4863C178.804 39.0137 178.608 39.4629 178.218 39.834C177.847 40.1855 177.388 40.3613 176.841 40.3613H165.884C165.454 40.3613 165.073 40.5078 164.741 40.8008C164.429 41.0938 164.194 41.4746 164.038 41.9434C163.901 42.4121 163.833 42.8711 163.833 43.3203C163.833 43.8086 163.901 44.2871 164.038 44.7559C164.194 45.2246 164.429 45.6055 164.741 45.8984C165.073 46.1719 165.454 46.3184 165.884 46.3379H176.841C177.388 46.3379 177.847 46.5137 178.218 46.8652C178.608 47.2168 178.804 47.6367 178.804 48.125C178.804 48.6328 178.608 49.0625 178.218 49.4141C177.847 49.7656 177.388 49.9414 176.841 49.9414H166.235ZM178.452 43.2324C178.452 43.6035 178.286 43.9258 177.954 44.1992C177.661 44.4531 177.29 44.5801 176.841 44.5801H167.261C166.812 44.5801 166.431 44.4531 166.118 44.1992C165.806 43.9258 165.649 43.6035 165.649 43.2324C165.649 42.8809 165.806 42.5684 166.118 42.2949C166.431 42.041 166.812 41.9141 167.261 41.9141H176.841C177.29 41.9141 177.671 42.0508 177.983 42.3242C178.296 42.5781 178.452 42.8809 178.452 43.2324Z" fill="url(#paint0_linear_119_288)"/>
<defs>
<filter id="filter0_f_119_288" x="0" y="-16" width="255" height="120" filterUnits="userSpaceOnUse" color-interpolation-filters="sRGB">
<feFlood flood-opacity="0" result="BackgroundImageFix"/>
<feBlend mode="normal" in="SourceGraphic" in2="BackgroundImageFix" result="shape"/>
<feGaussianBlur stdDeviation="17" result="effect1_foregroundBlur_119_288"/>
</filter>
<filter id="filter1_d_119_288" x="34.6475" y="22.6473" width="43.7051" height="43.3854" filterUnits="userSpaceOnUse" color-interpolation-filters="sRGB">
<feFlood flood-opacity="0" result="BackgroundImageFix"/>
<feColorMatrix in="SourceAlpha" type="matrix" values="0 0 0 0 0 0 0 0 0 0 0 0 0 0 0 0 0 0 127 0" result="hardAlpha"/>
<feOffset dy="4"/>
<feGaussianBlur stdDeviation="2"/>
<feComposite in2="hardAlpha" operator="out"/>
<feColorMatrix type="matrix" values="0 0 0 0 0 0 0 0 0 0 0 0 0 0 0 0 0 0 0.34 0"/>
<feBlend mode="normal" in2="BackgroundImageFix" result="effect1_dropShadow_119_288"/>
<feBlend mode="normal" in="SourceGraphic" in2="effect1_dropShadow_119_288" result="shape"/>
</filter>
<linearGradient id="paint0_linear_119_288" x1="92.876" y1="42" x2="178.376" y2="42" gradientUnits="userSpaceOnUse">
<stop stop-color="#4075FF"/>
<stop offset="1" stop-color="#CD38BE" stop-opacity="0.88"/>
</linearGradient>
</defs>
</svg>
