<svg xmlns="http://www.w3.org/2000/svg" width="147" height="46" viewBox="0 0 147 46" fill="none">
<g filter="url(#filter0_d_1_8)">
<rect x="15.2084" width="13.6938" height="13.6938" rx="5" transform="rotate(25.0911 15.2084 0)" fill="#4075FF" fill-opacity="0.6"/>
<rect x="29.599" y="6.67688" width="13.6938" height="13.6938" rx="5" transform="rotate(25.0911 29.599 6.67688)" fill="#4075FF" fill-opacity="0.6"/>
<rect x="23.4515" y="20.4714" width="13.6938" height="13.6938" rx="5" transform="rotate(25.0911 23.4515 20.4714)" fill="#4075FF" fill-opacity="0.6"/>
<rect x="8.80797" y="14.1113" width="13.6938" height="13.6938" rx="5" transform="rotate(25.0956 8.80797 14.1113)" fill="#FF0DE7" fill-opacity="0.7"/>
</g>
<path d="M65.5264 15.582C64.7842 15.6211 64.1592 15.9043 63.6514 16.4316C63.1631 16.959 62.8115 17.5645 62.5967 18.248C62.3818 18.9121 62.2744 19.5957 62.2744 20.2988C62.2744 21.002 62.3721 21.6953 62.5674 22.3789C62.7822 23.0625 63.1436 23.668 63.6514 24.1953C64.1592 24.7031 64.7842 24.9766 65.5264 25.0156H75.1943C76.4248 25.1328 77.0986 25.8066 77.2158 27.0371C77.1963 27.584 76.9912 28.043 76.6006 28.4141C76.21 28.7656 75.7412 28.9414 75.1943 28.9414H65.8486H64.501C63.1338 28.8633 62.0107 28.3457 61.1318 27.3887C60.2529 26.4121 59.6182 25.3086 59.2275 24.0781C58.8564 22.8477 58.6709 21.5879 58.6709 20.2988C58.6709 19.3418 58.7783 18.3945 58.9932 17.457C59.208 16.5195 59.54 15.6309 59.9893 14.791C60.458 13.9316 61.0732 13.1992 61.835 12.5938C62.6162 11.9883 63.5049 11.6758 64.501 11.6562H65.0576H75.1943C76.4248 11.7734 77.0986 12.4473 77.2158 13.6777C77.2158 14.2246 77.0107 14.6836 76.6006 15.0547C76.21 15.4062 75.7412 15.582 75.1943 15.582H65.5264ZM89.2568 29.4395C88.2412 29.4395 87.2354 29.3223 86.2393 29.0879C85.2627 28.8535 84.3252 28.5117 83.4268 28.0625C82.5283 27.5938 81.7373 26.9785 81.0537 26.2168C80.3701 25.4551 79.999 24.5469 79.9404 23.4922V22.2617V17.252C79.9404 16.7051 80.1357 16.2559 80.5264 15.9043C80.9365 15.5332 81.415 15.3477 81.9619 15.3477C83.1338 15.4453 83.7686 16.0801 83.8662 17.252V18.541V22.584C83.9053 23.1895 84.1299 23.6973 84.54 24.1074C84.9697 24.498 85.4385 24.8105 85.9463 25.0449C86.4736 25.2793 87.0107 25.4551 87.5576 25.5723C88.124 25.6895 88.6904 25.748 89.2568 25.748C89.8232 25.748 90.3799 25.6895 90.9268 25.5723C91.4932 25.4551 92.0303 25.2793 92.5381 25.0449C93.0654 24.8105 93.5342 24.498 93.9443 24.1074C94.374 23.6973 94.6084 23.1895 94.6475 22.584V18.541V17.252C94.6475 16.7051 94.8428 16.2559 95.2334 15.9043C95.6436 15.5332 96.1221 15.3477 96.6689 15.3477C97.8408 15.4453 98.4854 16.0801 98.6025 17.252V22.2617V23.4922C98.5439 24.5469 98.1631 25.4551 97.46 26.2168C96.7764 26.9785 95.9854 27.5938 95.0869 28.0625C94.1885 28.5117 93.2412 28.8535 92.2451 29.0879C91.2686 29.3223 90.2725 29.4395 89.2568 29.4395ZM106.308 13.0918V24.2539C106.308 24.7422 106.562 24.9961 107.069 25.0156H117.323C117.694 24.9961 118.017 24.8398 118.29 24.5469C118.563 24.2344 118.759 23.8828 118.876 23.4922C119.013 23.082 119.081 22.6719 119.081 22.2617C119.081 21.8711 119.013 21.4805 118.876 21.0898C118.759 20.6797 118.563 20.3281 118.29 20.0352C118.017 19.7227 117.694 19.5664 117.323 19.5664H109.823C109.276 19.5664 108.808 19.3809 108.417 19.0098C108.046 18.6191 107.86 18.1504 107.86 17.6035C107.86 17.0566 108.056 16.5977 108.446 16.2266C108.817 15.8359 109.276 15.6406 109.823 15.6406H117.206C118.573 15.6602 119.696 16.0508 120.575 16.8125C121.474 17.5547 122.108 18.4043 122.479 19.3613C122.87 20.2988 123.065 21.2754 123.065 22.291C123.065 23.2676 122.87 24.2344 122.479 25.1914C122.089 26.1289 121.454 26.9785 120.575 27.7402C119.696 28.4824 118.397 28.8828 116.679 28.9414H104.374C103.827 28.9414 103.358 28.7656 102.968 28.4141C102.577 28.043 102.372 27.584 102.353 27.0371V13.0918C102.353 12.5449 102.548 12.0957 102.938 11.7441C103.349 11.373 103.827 11.1875 104.374 11.1875C105.546 11.2852 106.19 11.9199 106.308 13.0918ZM132.235 28.9414C130.517 28.8828 129.218 28.4824 128.339 27.7402C127.46 26.9785 126.825 26.1289 126.435 25.1914C126.044 24.2344 125.849 23.2676 125.849 22.291C125.849 21.2754 126.034 20.2988 126.405 19.3613C126.796 18.4043 127.431 17.5547 128.31 16.8125C129.208 16.0508 130.341 15.6602 131.708 15.6406H142.841C143.388 15.6406 143.847 15.8262 144.218 16.1973C144.608 16.5488 144.804 16.9785 144.804 17.4863C144.804 18.0137 144.608 18.4629 144.218 18.834C143.847 19.1855 143.388 19.3613 142.841 19.3613H131.884C131.454 19.3613 131.073 19.5078 130.741 19.8008C130.429 20.0938 130.194 20.4746 130.038 20.9434C129.901 21.4121 129.833 21.8711 129.833 22.3203C129.833 22.8086 129.901 23.2871 130.038 23.7559C130.194 24.2246 130.429 24.6055 130.741 24.8984C131.073 25.1719 131.454 25.3184 131.884 25.3379H142.841C143.388 25.3379 143.847 25.5137 144.218 25.8652C144.608 26.2168 144.804 26.6367 144.804 27.125C144.804 27.6328 144.608 28.0625 144.218 28.4141C143.847 28.7656 143.388 28.9414 142.841 28.9414H132.235ZM144.452 22.2324C144.452 22.6035 144.286 22.9258 143.954 23.1992C143.661 23.4531 143.29 23.5801 142.841 23.5801H133.261C132.812 23.5801 132.431 23.4531 132.118 23.1992C131.806 22.9258 131.649 22.6035 131.649 22.2324C131.649 21.8809 131.806 21.5684 132.118 21.2949C132.431 21.041 132.812 20.9141 133.261 20.9141H142.841C143.29 20.9141 143.671 21.0508 143.983 21.3242C144.296 21.5781 144.452 21.8809 144.452 22.2324Z" fill="url(#paint0_linear_1_8)"/>
<defs>
<filter id="filter0_d_1_8" x="0.647469" y="1.64728" width="43.7058" height="43.3854" filterUnits="userSpaceOnUse" color-interpolation-filters="sRGB">
<feFlood flood-opacity="0" result="BackgroundImageFix"/>
<feColorMatrix in="SourceAlpha" type="matrix" values="0 0 0 0 0 0 0 0 0 0 0 0 0 0 0 0 0 0 127 0" result="hardAlpha"/>
<feOffset dy="4"/>
<feGaussianBlur stdDeviation="2"/>
<feComposite in2="hardAlpha" operator="out"/>
<feColorMatrix type="matrix" values="0 0 0 0 0 0 0 0 0 0 0 0 0 0 0 0 0 0 0.34 0"/>
<feBlend mode="normal" in2="BackgroundImageFix" result="effect1_dropShadow_1_8"/>
<feBlend mode="normal" in="SourceGraphic" in2="effect1_dropShadow_1_8" result="shape"/>
</filter>
<linearGradient id="paint0_linear_1_8" x1="58.876" y1="21" x2="144.376" y2="21" gradientUnits="userSpaceOnUse">
<stop stop-color="#4075FF"/>
<stop offset="1" stop-color="#CD38BE" stop-opacity="0.88"/>
</linearGradient>
</defs>
</svg>